<svg width="30" height="30" viewBox="0 0 30 30" fill="none" xmlns="http://www.w3.org/2000/svg">
<g id="Group 597">
<circle id="Ellipse 2" cx="15" cy="15" r="15" fill="#EDF3F9"/>
<g id="Group">
<path id="Vector" d="M19.0419 5H10.9581C7.67279 5 5 7.67279 5 10.9581V19.0419C5 22.3272 7.67279 25 10.9581 25H19.0419C22.3272 25 25 22.3272 25 19.0419V10.9581C25 7.67279 22.3272 5 19.0419 5ZM22.988 19.0419C22.988 21.2213 21.2213 22.988 19.0419 22.988H10.9581C8.77875 22.988 7.012 21.2213 7.012 19.0419V10.9581C7.012 8.77871 8.77875 7.012 10.9581 7.012H19.0419C21.2213 7.012 22.988 8.77871 22.988 10.9581V19.0419Z" fill="#5F83A7"/>
<path id="Vector_2" d="M15 9.82751C12.1477 9.82751 9.82727 12.148 9.82727 15.0002C9.82727 17.8524 12.1477 20.1729 15 20.1729C17.8522 20.1729 20.1727 17.8524 20.1727 15.0002C20.1727 12.148 17.8522 9.82751 15 9.82751ZM15 18.1609C13.2544 18.1609 11.8393 16.7459 11.8393 15.0002C11.8393 13.2546 13.2544 11.8395 15 11.8395C16.7456 11.8395 18.1607 13.2546 18.1607 15.0002C18.1607 16.7458 16.7456 18.1609 15 18.1609Z" fill="#5F83A7"/>
<path id="Vector_3" d="M20.1827 11.1053C20.8673 11.1053 21.4222 10.5504 21.4222 9.86583C21.4222 9.18128 20.8673 8.62634 20.1827 8.62634C19.4982 8.62634 18.9432 9.18128 18.9432 9.86583C18.9432 10.5504 19.4982 11.1053 20.1827 11.1053Z" fill="#5F83A7"/>
</g>
</g>
</svg>
