<svg width="30" height="30" viewBox="0 0 30 30" fill="none" xmlns="http://www.w3.org/2000/svg">
<g id="Telegram">
<path id="Shape" d="M15 30C23.2843 30 30 23.2843 30 15C30 6.71575 23.2843 0 15 0C6.71575 0 0 6.71575 0 15C0 23.2843 6.71575 30 15 30Z" fill="#EDF3F9"/>
<path id="Shape_2" d="M5.58639 15.734C7.33988 14.7681 9.29725 13.962 11.1261 13.1517C14.2725 11.8246 17.4314 10.5205 20.6221 9.30635C21.2429 9.09947 22.3584 8.89716 22.4678 9.81716C22.4079 11.1194 22.1615 12.414 21.9925 13.7087C21.5636 16.5557 21.0678 19.3929 20.5844 22.2305C20.4178 23.1757 19.2338 23.665 18.4761 23.0602C16.6554 21.8303 14.8206 20.6124 13.0231 19.354C12.4343 18.7557 12.9803 17.8965 13.5062 17.4693C15.0058 15.9914 16.5962 14.7358 18.0174 13.1815C18.4008 12.2557 17.2681 13.036 16.8944 13.275C14.8414 14.6898 12.8387 16.1909 10.6742 17.4343C9.56857 18.0429 8.27994 17.5228 7.17482 17.1832C6.18393 16.7729 4.73192 16.3596 5.58629 15.734L5.58639 15.734Z" fill="#5F83A7"/>
</g>
</svg>
