<svg width="30" height="30" viewBox="0 0 30 30" fill="none" xmlns="http://www.w3.org/2000/svg">
<g id="vkontakte">
<path id="Bg" fill-rule="evenodd" clip-rule="evenodd" d="M0 15C0 6.71562 6.71562 0 15 0C23.2844 0 30 6.71562 30 15C30 23.2844 23.2844 30 15 30C6.71562 30 0 23.2844 0 15Z" fill="#EDF3F9"/>
<path id="vkontakte_2" fill-rule="evenodd" clip-rule="evenodd" d="M15.8301 19.6482C15.8301 19.6482 16.1346 19.6155 16.2908 19.4521C16.4338 19.3024 16.4285 19.0206 16.4285 19.0206C16.4285 19.0206 16.4094 17.7066 17.0374 17.5091C17.6563 17.3176 18.4511 18.7826 19.294 19.3462C19.9313 19.7718 20.4143 19.6789 20.4143 19.6789L22.6676 19.6482C22.6676 19.6482 23.8459 19.5776 23.2871 18.6754C23.2409 18.6016 22.9609 18.0079 21.6118 16.788C20.1982 15.5113 20.388 15.7179 22.0896 13.5062C23.1263 12.1614 23.5401 11.3397 23.4077 10.9886C23.2844 10.6526 22.5219 10.7422 22.5219 10.7422L19.9853 10.7572C19.9853 10.7572 19.7975 10.7324 19.6578 10.8134C19.5214 10.8932 19.433 11.0788 19.433 11.0788C19.433 11.0788 19.0317 12.1196 18.4966 13.0048C17.367 14.8719 16.9155 14.9726 16.731 14.8556C16.3013 14.5849 16.4081 13.769 16.4081 13.1898C16.4081 11.3796 16.6901 10.6251 15.8591 10.4297C15.5836 10.3643 15.3806 10.3218 14.6748 10.3146C13.7693 10.3055 13.0041 10.3179 12.5698 10.5245C12.2812 10.6617 12.0584 10.969 12.1942 10.9867C12.3616 11.0082 12.7412 11.086 12.9429 11.3528C13.2025 11.6973 13.194 12.4707 13.194 12.4707C13.194 12.4707 13.3436 14.6012 12.8447 14.866C12.5033 15.0478 12.034 14.6771 11.027 12.9826C10.511 12.115 10.1215 11.1553 10.1215 11.1553C10.1215 11.1553 10.0464 10.9762 9.91195 10.8794C9.74917 10.7631 9.52246 10.7265 9.52246 10.7265L7.11237 10.7415C7.11237 10.7415 6.7499 10.7513 6.61743 10.9043C6.49947 11.0403 6.60821 11.322 6.60821 11.322C6.60821 11.322 8.49568 15.6218 10.6323 17.7883C12.5923 19.7744 14.8165 19.6443 14.8165 19.6443H15.8248" fill="#5F83A7"/>
</g>
</svg>
